<svg xmlns="http://www.w3.org/2000/svg" width="54" height="56" viewBox="0 0 54 56">
    <g fill="none" fill-rule="nonzero">
        <path fill="#28C38A" d="M47.362 46.704L33.638 54.32c-4.163 2.24-9.225 2.24-13.275 0L6.636 46.704A12.543 12.543 0 0 1 0 35.616V20.384c0-4.592 2.587-8.736 6.638-11.088L20.363 1.68c4.162-2.24 9.224-2.24 13.275 0l13.724 7.616A12.543 12.543 0 0 1 54 20.384v15.232c0 4.592-2.587 8.736-6.638 11.088z"/>
        <path fill="#FFF" d="M27.39 36h-3.456l-3.32-5.4-3.321 5.4h-3.242l4.736-7.363-4.433-6.914h3.34l3.076 5.136 3.017-5.136h3.262l-4.483 7.08L27.391 36zm4.825-7.559h.996c.93 0 1.628-.184 2.09-.551.462-.368.693-.904.693-1.607 0-.71-.194-1.234-.58-1.572-.388-.339-.995-.508-1.822-.508h-1.377v4.238zm6.836-2.265c0 1.536-.48 2.711-1.44 3.525-.96.814-2.326 1.22-4.097 1.22h-1.3V36h-3.026V21.723h4.56c1.732 0 3.049.372 3.95 1.118.902.745 1.353 1.857 1.353 3.335z"/>
    </g>
</svg>
