<?xml version="1.0" encoding="UTF-8"?>
<svg width="222px" height="144px" viewBox="0 0 222 144" version="1.1" xmlns="http://www.w3.org/2000/svg" xmlns:xlink="http://www.w3.org/1999/xlink">
    <!-- Generator: Sketch 63.1 (92452) - https://sketch.com -->
    <title>kword</title>
    <desc>Created with Sketch.</desc>
    <defs>
        <path d="M8,0 L214,0 C218.418278,-8.11624501e-16 222,3.581722 222,8 L222,136 C222,140.418278 218.418278,144 214,144 L8,144 C3.581722,144 5.41083001e-16,140.418278 0,136 L0,8 C-5.41083001e-16,3.581722 3.581722,8.11624501e-16 8,0 Z" id="path-1"></path>
        <radialGradient cx="51.3989568%" cy="60.8824494%" fx="51.3989568%" fy="60.8824494%" r="170.32863%" gradientTransform="translate(0.513990,0.608824),scale(1.000000,0.561097),rotate(-90.000000),translate(-0.513990,-0.608824)" id="radialGradient-3">
            <stop stop-color="#4D468A" offset="0%"></stop>
            <stop stop-color="#4D468A" offset="43.3845928%"></stop>
            <stop stop-color="#4D468A" offset="100%"></stop>
        </radialGradient>
    </defs>
    <g id="Учиться" stroke="none" stroke-width="1" fill="none" fill-rule="evenodd">
        <g id="Dashboard-components" transform="translate(-841.000000, -682.000000)">
            <g id="kword" transform="translate(841.000000, 682.000000)">
                <g id="bg-cross">
                    <mask id="mask-2" fill="white">
                        <use xlink:href="#path-1"></use>
                    </mask>
                    <g id="Mask"></g>
                    <g id="bg" mask="url(#mask-2)">
                        <g transform="translate(-48.000000, -108.000000)">
                            <rect id="Rectangle-2-Copy" fill="url(#radialGradient-3)" x="46" y="0" width="225" height="401"></rect>
                            <g id="Group-5" style="mix-blend-mode: overlay;" stroke-width="1" fill="none" transform="translate(145.117000, 290.550600) rotate(157.000000) translate(-145.117000, -290.550600) translate(33.117000, 183.550600)" opacity="0.940590019">
                                <path d="M107.30535,213.244629 C166.399818,213.244629 214.30535,165.562955 214.30535,106.744629 C214.30535,47.9263034 166.399818,0.24462924 107.30535,0.24462924 C48.2108815,0.24462924 0.305349726,47.9263034 0.305349726,106.744629 C0.305349726,165.562955 48.2108815,213.244629 107.30535,213.244629 Z" id="Oval-Copy-2" fill="#8C8997"></path>
                            </g>
                            <circle id="Oval-2-Copy-2" fill="#4D468A" transform="translate(154.000000, 215.000000) rotate(-7.000000) translate(-154.000000, -215.000000) " cx="154" cy="215" r="9"></circle>
                            <circle id="Oval-2-Copy-3" fill="#4D468A" transform="translate(134.098020, 233.129586) rotate(-7.000000) translate(-134.098020, -233.129586) " cx="134.09802" cy="233.129586" r="2.5"></circle>
                            <circle id="Oval-2-Copy" fill="#4D468A" transform="translate(81.338782, 238.066001) rotate(-7.000000) translate(-81.338782, -238.066001) " cx="81.3387818" cy="238.066001" r="4.5"></circle>
                            <path d="M370.03912,153.860478 L250.736856,85.1490589 C249.077411,84.1933116 248.50761,82.0786863 249.463715,80.4266984 L249.290306,80.7263188 C250.246615,79.0739785 252.369852,78.5108624 254.022422,79.4626497 L290.332805,100.375396 C291.989971,101.329831 294.110856,100.760189 295.06428,99.112832 L294.918594,99.3645544 C295.874549,97.7128245 295.307804,95.6010892 293.650925,94.6468197 L284.378401,89.3063656 C282.722332,88.3525626 282.153382,86.2427734 283.115107,84.5810731 C283.974708,83.0958281 286.093045,82.526038 287.756679,83.4841982 L353.274664,121.218886 C354.934312,122.17475 355.504949,124.288309 354.546256,125.94477 C353.697112,127.411948 354.261443,129.52493 355.919402,130.479821 L391.267562,150.838381 C392.923526,151.792123 393.49265,153.901418 392.534705,155.556586 L392.698915,155.272859 C391.742774,156.924909 389.625428,157.491105 387.965978,156.535354 L379.354253,151.575483 C377.696464,150.62069 375.580982,151.186219 374.625505,152.845027 L374.770867,152.592662 C373.81704,154.248605 371.700329,154.817242 370.03912,153.860478 Z" id="Path-9-Copy-3" fill="#D8D8D8" opacity="0.115287125" style="mix-blend-mode: overlay;" transform="translate(321.000000, 118.000000) scale(-1, 1) rotate(-180.000000) translate(-321.000000, -118.000000) "></path>
                            <path d="M320.03912,149.860478 L200.736856,81.1490589 C199.077411,80.1933116 198.50761,78.0786863 199.463715,76.4266984 L199.290306,76.7263188 C200.246615,75.0739785 202.369852,74.5108624 204.022422,75.4626497 L240.332805,96.3753959 C241.989971,97.329831 244.110856,96.7601886 245.06428,95.112832 L244.918594,95.3645544 C245.874549,93.7128245 245.307804,91.6010892 243.650925,90.6468197 L234.378401,85.3063656 C232.722332,84.3525626 232.153382,82.2427734 233.115107,80.5810731 C233.974708,79.0958281 236.093045,78.526038 237.756679,79.4841982 L303.274664,117.218886 C304.934312,118.17475 305.504949,120.288309 304.546256,121.94477 C303.697112,123.411948 304.261443,125.52493 305.919402,126.479821 L341.267562,146.838381 C342.923526,147.792123 343.49265,149.901418 342.534705,151.556586 L342.698915,151.272859 C341.742774,152.924909 339.625428,153.491105 337.965978,152.535354 L329.354253,147.575483 C327.696464,146.62069 325.580982,147.186219 324.625505,148.845027 L324.770867,148.592662 C323.81704,150.248605 321.700329,150.817242 320.03912,149.860478 Z" id="Path-9-Copy-4" fill="#D8D8D8" opacity="0.115287125" style="mix-blend-mode: overlay;" transform="translate(271.000000, 114.000000) scale(-1, 1) rotate(-180.000000) translate(-271.000000, -114.000000) "></path>
                            <circle id="Oval-2" fill="#4D468A" transform="translate(109.500000, 217.500000) rotate(-7.000000) translate(-109.500000, -217.500000) " cx="109.5" cy="217.5" r="11.5"></circle>
                        </g>
                    </g>
                    <g id="chel" mask="url(#mask-2)">
                        <g transform="translate(124.514063, 52.464000)">
                            <rect id="Rectangle-path" fill="#616A89" fill-rule="nonzero" x="54.8367187" y="78.416" width="47.953125" height="14.5386667"></rect>
                            <path d="M34.2632812,93.728 L5.18203125,93.728 L2.24296875,76.8693333 C1.546875,73.0026667 4.25390625,69.2133333 8.1984375,68.9813333 C8.353125,68.9813333 8.58515625,68.9813333 8.73984375,68.9813333 L34.2632812,68.9813333 L34.2632812,93.728 L34.2632812,93.728 Z" id="Shape" fill="#5A7F99" fill-rule="nonzero"></path>
                            <path d="M6.72890625,105.56 L17.2476562,104.168 L12.2976562,74.3946667 C12.2976562,71.456 9.9,69.0586667 6.9609375,69.0586667 L6.9609375,69.0586667 C4.021875,69.0586667 1.62421875,71.456 1.62421875,74.3946667 L6.72890625,105.56 Z" id="Shape" fill="#618EAB" fill-rule="nonzero"></path>
                            <path d="M51.8976563,75.168 L96.6023438,75.168 L96.6023438,27.144 L59.7867188,27.144 C55.378125,27.144 51.8203125,30.7013333 51.8203125,35.1093333 L51.8203125,75.168 L51.8976563,75.168 Z" id="Shape" fill="#4C5B81" fill-rule="nonzero"></path>
                            <path d="M102.635156,33.64 L102.635156,74.7813333 C102.635156,74.7813333 97.9945313,74.8586667 97.9945313,74.8586667 L89.3320313,74.8586667 C89.3320313,74.8586667 84.6914063,74.8586667 84.6914063,74.7813333 L89.3320313,33.64 C89.3320313,29.928 92.3484375,26.9893333 95.9835938,26.9893333 L95.9835938,26.9893333 C99.61875,26.9893333 102.635156,30.0053333 102.635156,33.64 Z" id="Shape" fill="#616A89" fill-rule="nonzero"></path>
                            <path d="M64.96875,32.712 L64.96875,12.76 L71.9296875,12.76 L71.9296875,25.752 C71.9296875,29.5413333 68.8359375,32.712 64.96875,32.712 L64.96875,32.712 Z" id="Shape" fill="#93807C" fill-rule="nonzero"></path>
                            <path d="M53.0578125,61.0933333 L41.3015625,61.0933333 L47.8757812,42.1466667 C48.9585937,38.8986667 50.5054687,36.2693333 53.7539062,36.2693333 L53.7539062,36.2693333 C57.0023437,36.2693333 59.6320313,38.8986667 59.6320313,42.1466667 L53.0578125,61.0933333 Z" id="Shape" fill="#403FB9" fill-rule="nonzero"></path>
                            <path d="M53.9085937,61.3253333 L42.075,61.3253333 L48.7265625,42.3013333 C49.8867187,38.8213333 51.35625,36.424 54.6046875,36.424 L54.6046875,36.424 C57.853125,36.424 60.4828125,39.0533333 60.4828125,42.3013333 L53.9085937,61.3253333 Z" id="Shape" fill="#3D3C9F" fill-rule="nonzero"></path>
                            <path d="M73.5539062,69.832 L50.9695312,69.832 L50.9695312,39.9813333 C50.9695312,37.8933333 52.6710937,36.192 54.759375,36.192 L75.178125,36.192 L73.5539062,69.832 Z" id="Shape" fill="#353492" fill-rule="nonzero"></path>
                            <path d="M61.4882812,93.728 L23.821875,93.728 L29.0039062,74.3173333 C29.8546875,71.1466667 32.7164062,68.9813333 35.9648437,68.9813333 L61.4882812,68.9813333 L61.4882812,93.728 Z" id="Shape" fill="#618EAB" fill-rule="nonzero"></path>
                            <path d="M76.0289062,63.2586667 L67.2117188,63.2586667 L70.5375,40.6 C70.5375,38.2026667 72.4710938,36.192 74.9460938,36.192 L74.9460938,36.192 C77.34375,36.192 79.3546875,38.1253333 79.3546875,40.6 L76.0289062,63.2586667 Z" id="Shape" fill="#3D3C9F" fill-rule="nonzero"></path>
                            <path d="M61.565625,67.2026667 L102.7125,67.2026667 C102.7125,67.2026667 102.789844,67.2026667 102.789844,67.28 L102.789844,80.504 C102.789844,80.504 102.789844,80.5813333 102.7125,80.5813333 L61.565625,80.5813333 C57.853125,80.5813333 54.9140625,77.5653333 54.9140625,73.9306667 L54.9140625,73.9306667 C54.9140625,70.1413333 57.9304688,67.2026667 61.565625,67.2026667 Z" id="Shape" fill="#616A89" fill-rule="nonzero"></path>
                            <ellipse id="Oval" fill="#3D3C9F" fill-rule="nonzero" transform="translate(62.788794, 37.501659) rotate(-3.587987) translate(-62.788794, -37.501659) " cx="62.7887941" cy="37.5016587" rx="8.58481328" ry="2.55189805"></ellipse>
                            <ellipse id="Oval" fill="#ECBA88" fill-rule="nonzero" transform="translate(62.714527, 37.195822) rotate(-3.587992) translate(-62.714527, -37.195822) " cx="62.7145269" cy="37.1958221" rx="7.57938474" ry="2.01058635"></ellipse>
                            <path d="M56.1515625,67.048 L102.7125,67.048 C102.7125,67.048 102.7125,67.048 102.7125,67.048 L102.7125,69.5226667 C102.7125,69.5226667 102.7125,69.5226667 102.7125,69.5226667 L56.1515625,69.5226667 C55.4554687,69.5226667 54.9140625,68.9813333 54.9140625,68.2853333 L54.9140625,68.2853333 C54.9140625,67.5893333 55.4554687,67.048 56.1515625,67.048 Z" id="Shape" fill="#6181A0" fill-rule="nonzero"></path>
                            <polygon id="Rectangle-path" fill="#CE8E69" fill-rule="nonzero" points="57.853125 9.82133333 67.5984375 9.82133333 67.5984375 36.3466667 57.853125 36.3466667"></polygon>
                            <ellipse id="Oval" fill="#CE8E69" fill-rule="nonzero" transform="translate(62.735279, 36.503918) rotate(0.447168) translate(-62.735279, -36.503918) " cx="62.735279" cy="36.5039178" rx="4.87280465" ry="1.62404946"></ellipse>
                            <path d="M63.1125,73.776 L63.1125,114.917333 C63.1125,114.917333 63.1125,114.994667 63.0351562,114.994667 L49.809375,114.994667 C49.809375,114.994667 49.7320312,114.994667 49.7320312,114.917333 L49.7320312,73.776 C49.7320312,70.064 52.7484375,67.1253333 56.3835937,67.1253333 L56.3835937,67.1253333 C60.1734375,67.1253333 63.1125,70.1413333 63.1125,73.776 Z" id="Shape" fill="#4C5B81" fill-rule="nonzero"></path>
                            <path d="M61.7976562,38.512 C61.7976562,38.512 60.5601562,38.4346667 59.1679687,37.8933333 C57.4664062,37.2746667 57.6210937,36.424 57.6210937,36.424 L57.6210937,28.768 L61.7976562,28.768 L61.7976562,38.512 Z" id="Shape" fill="#ECBA88" fill-rule="nonzero"></path>
                            <path d="M58.2398437,32.3253333 L58.2398437,32.3253333 C51.8203125,32.3253333 46.5609375,27.0666667 46.5609375,20.648 L46.5609375,11.832 C46.5609375,5.41333333 51.8203125,0.154666667 58.2398437,0.154666667 L58.2398437,0.154666667 C64.659375,0.154666667 69.91875,5.41333333 69.91875,11.832 L69.91875,20.648 C69.91875,27.144 64.659375,32.3253333 58.2398437,32.3253333 Z" id="Shape" fill="#ECBA88" fill-rule="nonzero"></path>
                            <path d="M60.8695312,32.3253333 L60.8695312,32.3253333 C55.7648437,32.3253333 51.665625,28.2266667 51.665625,23.1226667 L51.665625,9.35733333 C51.665625,4.25333333 55.7648437,0.154666667 60.8695312,0.154666667 L60.8695312,0.154666667 C65.9742187,0.154666667 70.0734375,4.25333333 70.0734375,9.35733333 L70.0734375,23.1226667 C70.0734375,28.2266667 65.9742187,32.3253333 60.8695312,32.3253333 Z" id="Shape" fill="#CE8E69" fill-rule="nonzero"></path>
                            <path d="M70.3054687,21.576 L70.3054687,11.9866667 L65.5875,11.9866667 L65.5875,16.8586667 C65.5875,19.488 67.6757812,21.576 70.3054687,21.576 L70.3054687,21.576 Z" id="Shape" fill="#93807C" fill-rule="nonzero"></path>
                            <path d="M55.378125,8.12 L69.4546875,8.12 L69.4546875,15.0026667 L62.3390625,15.0026667 C58.471875,15.0026667 55.378125,11.9093333 55.378125,8.12 L55.378125,8.12 Z" id="Shape" fill="#93807C" fill-rule="nonzero"></path>
                            <path d="M46.7929688,16.8586667 L46.7929688,16.8586667 C46.7929688,16.472 47.1023438,16.0853333 47.5664063,16.0853333 L49.4226563,16.0853333 C49.809375,16.0853333 50.1960938,16.3946667 50.1960938,16.8586667 L50.1960938,16.8586667 C50.1960938,17.2453333 49.8867188,17.632 49.4226563,17.632 L47.5664063,17.632 C47.1023438,17.632 46.7929688,17.3226667 46.7929688,16.8586667 Z" id="Shape" fill="#735347" fill-rule="nonzero"></path>
                            <path d="M56.8476563,16.8586667 L56.8476563,16.8586667 C56.8476563,16.472 57.1570313,16.0853333 57.6210938,16.0853333 L59.4773438,16.0853333 C59.8640625,16.0853333 60.2507813,16.3946667 60.2507813,16.8586667 L60.2507813,16.8586667 C60.2507813,17.2453333 59.9414063,17.632 59.4773438,17.632 L57.6210938,17.632 C57.1570313,17.632 56.8476563,17.3226667 56.8476563,16.8586667 Z" id="Shape" fill="#735347" fill-rule="nonzero"></path>
                            <ellipse id="Oval" fill="#735347" fill-rule="nonzero" cx="48.4171875" cy="19.488" rx="1" ry="1"></ellipse>
                            <ellipse id="Oval" fill="#735347" fill-rule="nonzero" cx="58.471875" cy="19.6426667" rx="1" ry="1"></ellipse>
                            <path d="M72.39375,39.7493333 L69.7640625,57.536 C69.6867188,58 69.3,58.3093333 68.8359375,58.232 L68.8359375,58.232 C68.371875,58.1546667 68.0625,57.768 68.1398438,57.304 L70.7695313,39.5173333 C70.846875,39.0533333 71.2335938,38.744 71.6976563,38.8213333 L71.6976563,38.8213333 C72.1617188,38.8986667 72.4710938,39.2853333 72.39375,39.7493333 Z" id="Shape" fill="#403FB9" fill-rule="nonzero"></path>
                            <path d="M64.8140625,-2.48689958e-14 L64.8140625,-2.48689958e-14 C60.2507812,-2.48689958e-14 56.5382812,3.712 56.5382812,8.27466667 L56.5382812,8.42933333 L68.2945312,8.42933333 L68.2945312,16.1626667 C71.15625,14.848 73.1671875,11.9866667 73.1671875,8.584 L73.1671875,8.27466667 C73.0898437,3.712 69.3773437,-2.48689958e-14 64.8140625,-2.48689958e-14 Z" id="Shape" fill="#735347" fill-rule="nonzero"></path>
                            <path d="M43.2351562,1.0658141e-13 L64.35,1.0658141e-13 L70.3054687,10.3626667 L53.5992187,10.3626667 C47.8757812,10.3626667 43.2351562,5.72266667 43.2351562,1.0658141e-13 L43.2351562,1.0658141e-13 Z" id="Shape" fill="#735347" fill-rule="nonzero"></path>
                            <polygon id="Shape" fill="#93807C" fill-rule="nonzero" points="71.9296875 23.3546667 67.6757813 17.3226667 67.6757813 10.3626667 72.8578125 10.3626667"></polygon>
                            <ellipse id="Oval" fill="#CE8E69" fill-rule="nonzero" cx="65.896875" cy="15.6213333" rx="3.17109375" ry="3.17066667"></ellipse>
                            <path d="M76.1835938,62.64 L76.10625,62.9493333 C75.796875,65.3466667 73.63125,66.9706667 71.2335937,66.6613333 L68.2945312,66.2746667 C65.896875,65.9653333 64.2726562,63.8 64.5820312,61.4026667 L64.659375,61.0933333 C64.96875,58.696 67.134375,57.072 69.5320312,57.3813333 L72.4710937,57.768 C74.86875,58.0773333 76.4929688,60.2426667 76.1835938,62.64 Z" id="Shape" fill="#353492" fill-rule="nonzero"></path>
                            <path d="M50.8921875,62.9493333 L51.8203125,56.2213333 L70.846875,58.928 C72.703125,58.928 74.25,60.4746667 74.25,62.3306667 L74.25,62.3306667 C74.25,64.1866667 72.703125,65.7333333 70.846875,65.7333333 L50.8921875,62.9493333 Z" id="Shape" fill="#CE8E69" fill-rule="nonzero"></path>
                            <path d="M71.0789063,60.3973333 L53.9859375,57.9226667 C53.5992188,57.8453333 53.3671875,57.536 53.3671875,57.1493333 L53.3671875,57.1493333 C53.4445313,56.7626667 53.7539063,56.5306667 54.140625,56.5306667 L71.2335938,59.0053333 C71.6203125,59.0826667 71.8523438,59.392 71.8523438,59.7786667 L71.8523438,59.7786667 C71.8523438,60.1653333 71.465625,60.4746667 71.0789063,60.3973333 Z" id="Shape" fill="#ECBA88" fill-rule="nonzero"></path>
                            <ellipse id="Oval" fill="#B8644F" fill-rule="nonzero" cx="56.4609375" cy="27.9946667" rx="1" ry="1"></ellipse>
                            <g id="Group" stroke-width="1" fill="none" fill-rule="evenodd" transform="translate(35.423437, 21.962667)">
                                <g fill="#CE8E69" fill-rule="nonzero" id="Shape">
                                    <path d="M6.11015625,3.944 L6.11015625,3.944 C6.80625,3.86666667 7.425,4.33066667 7.50234375,5.02666667 L8.353125,11.0586667 C8.43046875,11.7546667 7.96640625,12.3733333 7.2703125,12.4506667 L7.2703125,12.4506667 C6.57421875,12.528 5.95546875,12.064 5.878125,11.368 L5.02734375,5.336 C4.95,4.71733333 5.4140625,4.09866667 6.11015625,3.944 Z"></path>
                                    <path d="M7.81171875,0.386666667 L7.81171875,0.386666667 C8.5078125,0.309333333 9.1265625,0.773333333 9.20390625,1.46933333 L10.51875,10.7493333 C10.5960938,11.4453333 10.1320313,12.064 9.4359375,12.1413333 L9.4359375,12.1413333 C8.73984375,12.2186667 8.12109375,11.7546667 8.04375,11.0586667 L6.72890625,1.77866667 C6.6515625,1.16 7.115625,0.541333333 7.81171875,0.386666667 Z"></path>
                                    <path d="M3.63515625,4.33066667 L3.63515625,4.33066667 C4.33125,4.25333333 4.95,4.71733333 5.02734375,5.41333333 L5.878125,11.4453333 C5.95546875,12.1413333 5.49140625,12.76 4.7953125,12.8373333 L4.7953125,12.8373333 C4.09921875,12.9146667 3.48046875,12.4506667 3.403125,11.7546667 L2.55234375,5.72266667 C2.475,5.104 2.9390625,4.408 3.63515625,4.33066667 Z"></path>
                                    <path d="M1.3921875,5.41333333 L1.46953125,5.41333333 C2.08828125,5.336 2.70703125,5.8 2.86171875,6.41866667 L3.63515625,11.832 C3.7125,12.4506667 3.2484375,13.0693333 2.6296875,13.224 L2.55234375,13.224 C1.93359375,13.3013333 1.31484375,12.8373333 1.16015625,12.2186667 L0.38671875,6.80533333 C0.23203125,6.18666667 0.69609375,5.568 1.3921875,5.41333333 Z"></path>
                                </g>
                                <path d="M1.2375,12.992 L1.00546875,11.6 L10.4414062,10.208 L10.6734375,11.6 C10.9828125,13.688 9.51328125,15.6986667 7.425,16.008 L5.64609375,16.24 C3.48046875,16.6266667 1.546875,15.1573333 1.2375,12.992 Z" id="Shape" fill="#CE8E69" fill-rule="nonzero"></path>
                                <path d="M2.55234375,15.1573333 L8.73984375,15.08 L8.73984375,32.6346667 C8.971875,34.336 7.81171875,35.8826667 6.11015625,36.1146667 L6.11015625,36.1146667 C4.40859375,36.3466667 2.86171875,35.1866667 2.6296875,33.4853333 L2.55234375,15.1573333 Z" id="Shape" fill="#CE8E69" fill-rule="nonzero"></path>
                            </g>
                            <path d="M53.3671875,28.536 L36.2742188,26.6026667 C36.1195313,26.6026667 35.8875,26.5253333 35.7328125,26.448 L33.9539063,25.752 L35.8101563,25.4426667 C35.9648438,25.4426667 36.196875,25.4426667 36.3515625,25.4426667 L53.4445313,27.376 C53.7539063,27.376 53.9859375,27.6853333 53.9859375,27.9946667 L53.9859375,27.9946667 C53.9859375,28.304 53.6765625,28.536 53.3671875,28.536 Z" id="Shape" fill="#62A7BA" fill-rule="nonzero"></path>
                            <path d="M43.2351562,22.4266667 L43.2351562,22.4266667 C43.93125,22.3493333 44.55,22.8133333 44.6273437,23.5093333 L44.9367187,25.4426667 C45.0140625,26.1386667 44.55,26.7573333 43.8539062,26.8346667 L43.8539062,26.8346667 C43.1578125,26.912 42.5390625,26.448 42.4617187,25.752 L42.1523437,23.8186667 C42.075,23.2 42.5390625,22.5813333 43.2351562,22.4266667 Z" id="Shape" fill="#ECBA88" fill-rule="nonzero"></path>
                            <path d="M44.0085937,27.144 L44.0085937,27.144 C44.7046875,27.0666667 45.3234375,27.5306667 45.4007812,28.2266667 L45.7101562,30.16 C45.7875,30.856 45.3234375,31.4746667 44.6273437,31.552 L44.6273437,31.552 C43.93125,31.6293333 43.3125,31.1653333 43.2351562,30.4693333 L42.9257812,28.536 C42.8484375,27.9173333 43.3125,27.2986667 44.0085937,27.144 Z" id="Shape" fill="#ECBA88" fill-rule="nonzero"></path>
                            <path d="M37.9757813,51.8906667 L37.9757813,51.8906667 C38.2078125,51.04 39.1359375,50.4986667 40.0640625,50.808 L48.88125,53.4373333 C49.7320313,53.6693333 50.2734375,54.5973333 49.9640625,55.5253333 L49.9640625,55.5253333 C49.7320313,56.376 48.8039063,56.9173333 47.8757813,56.608 L39.0585938,53.9786667 C38.2078125,53.7466667 37.74375,52.8186667 37.9757813,51.8906667 Z" id="Shape" fill="#ECBA88" fill-rule="nonzero"></path>
                            <polygon id="Shape" fill="#AFB7C1" fill-rule="nonzero" points="48.2625 69.6 11.446875 69.6 2.24296875 36.9653333 39.0585937 36.9653333"></polygon>
                            <polygon id="Shape" fill="#B9C2CE" fill-rule="nonzero" points="21.0375 69.6 9.20390625 69.6 1.86517468e-13 36.9653333 11.8335938 36.9653333"></polygon>
                            <g id="Group" stroke-width="1" fill="none" fill-rule="evenodd" transform="translate(16.860937, 40.522667)">
                                <polygon id="Shape" fill="#A3A9B0" fill-rule="nonzero" points="4.25390625 3.86666667 1.2375 3.86666667 0.23203125 0.464 3.32578125 0.464"></polygon>
                                <polygon id="Shape" fill="#A3A9B0" fill-rule="nonzero" points="5.33671875 7.656 2.3203125 7.656 1.3921875 4.25333333 4.40859375 4.25333333"></polygon>
                                <polygon id="Shape" fill="#A3A9B0" fill-rule="nonzero" points="8.8171875 7.656 5.80078125 7.656 4.7953125 4.25333333 7.8890625 4.25333333"></polygon>
                                <polygon id="Shape" fill="#A3A9B0" fill-rule="nonzero" points="12.2976562 7.656 9.20390625 7.656 8.27578125 4.25333333 11.2921875 4.25333333"></polygon>
                                <polygon id="Shape" fill="#A3A9B0" fill-rule="nonzero" points="13.4578125 11.5226667 10.3640625 11.5226667 9.4359375 8.12 12.4523438 8.12"></polygon>
                                <polygon id="Shape" fill="#A3A9B0" fill-rule="nonzero" points="11.2148438 3.944 8.1984375 3.944 7.19296875 0.464 10.209375 0.464"></polygon>
                                <polygon id="Shape" fill="#A3A9B0" fill-rule="nonzero" points="15.7007813 7.656 12.684375 7.656 11.75625 4.25333333 14.7726563 4.25333333"></polygon>
                                <polygon id="Shape" fill="#A3A9B0" fill-rule="nonzero" points="19.18125 7.656 16.1648437 7.656 15.159375 4.25333333 18.253125 4.25333333"></polygon>
                                <polygon id="Shape" fill="#A3A9B0" fill-rule="nonzero" points="11.0601563 15.312 7.96640625 15.312 7.03828125 11.9093333 10.0546875 11.9093333"></polygon>
                                <polygon id="Shape" fill="#A3A9B0" fill-rule="nonzero" points="14.4632812 15.312 11.446875 15.312 10.51875 11.9093333 13.5351563 11.9093333"></polygon>
                                <polygon id="Shape" fill="#A3A9B0" fill-rule="nonzero" points="17.94375 15.312 14.9273438 15.312 13.921875 11.9093333 17.015625 11.9093333"></polygon>
                                <polygon id="Shape" fill="#A3A9B0" fill-rule="nonzero" points="19.1039062 19.024 16.0875 19.024 15.0820312 15.6213333 18.0984375 15.6213333"></polygon>
                                <polygon id="Shape" fill="#A3A9B0" fill-rule="nonzero" points="20.1867188 22.736 17.1703125 22.736 16.2421875 19.256 19.2585937 19.256"></polygon>
                                <polygon id="Shape" fill="#A3A9B0" fill-rule="nonzero" points="21.4242188 15.312 18.3304688 15.312 17.4023438 11.9093333 20.41875 11.9093333"></polygon>
                                <polygon id="Shape" fill="#A3A9B0" fill-rule="nonzero" points="14.3859375 26.448 11.3695312 26.448 10.4414062 23.0453333 13.4578125 23.0453333"></polygon>
                                <polygon id="Shape" fill="#A3A9B0" fill-rule="nonzero" points="17.8664063 26.448 14.85 26.448 13.8445312 23.0453333 16.9382812 23.0453333"></polygon>
                                <polygon id="Shape" fill="#A3A9B0" fill-rule="nonzero" points="21.346875 26.448 18.253125 26.448 17.325 23.0453333 20.3414063 23.0453333"></polygon>
                                <polygon id="Shape" fill="#A3A9B0" fill-rule="nonzero" points="24.75 26.448 21.7335938 26.448 20.8054687 23.0453333 23.821875 23.0453333"></polygon>
                            </g>
                            <g id="Group" stroke-width="1" fill="none" fill-rule="evenodd" transform="translate(35.423437, 52.896000)">
                                <g fill="#CE8E69" fill-rule="nonzero" id="Shape">
                                    <path d="M3.8671875,4.48533333 L3.8671875,4.48533333 C3.8671875,3.712 4.4859375,3.09333333 5.259375,3.09333333 L11.9882812,3.09333333 C12.7617188,3.09333333 13.3804688,3.712 13.3804688,4.48533333 L13.3804688,4.48533333 C13.3804688,5.25866667 12.7617188,5.87733333 11.9882812,5.87733333 L5.259375,5.87733333 C4.4859375,5.87733333 3.8671875,5.25866667 3.8671875,4.48533333 Z"></path>
                                    <path d="M0.23203125,2.01066667 L0.23203125,2.01066667 C0.23203125,1.23733333 0.85078125,0.618666667 1.62421875,0.618666667 L11.9109375,0.618666667 C12.684375,0.618666667 13.303125,1.23733333 13.303125,2.01066667 L13.303125,2.01066667 C13.303125,2.784 12.684375,3.40266667 11.9109375,3.40266667 L1.62421875,3.40266667 C0.85078125,3.40266667 0.23203125,2.784 0.23203125,2.01066667 Z"></path>
                                    <path d="M3.8671875,7.192 L3.8671875,7.192 C3.8671875,6.41866667 4.4859375,5.8 5.259375,5.8 L11.9882812,5.8 C12.7617188,5.8 13.3804688,6.41866667 13.3804688,7.192 L13.3804688,7.192 C13.3804688,7.96533333 12.7617188,8.584 11.9882812,8.584 L5.259375,8.584 C4.4859375,8.584 3.8671875,7.96533333 3.8671875,7.192 Z"></path>
                                    <path d="M4.71796875,9.82133333 L4.71796875,9.66666667 C4.71796875,8.97066667 5.33671875,8.352 6.0328125,8.352 L11.9882812,8.352 C12.684375,8.352 13.303125,8.97066667 13.303125,9.66666667 L13.303125,9.82133333 C13.303125,10.5173333 12.684375,11.136 11.9882812,11.136 L6.0328125,11.136 C5.33671875,11.136 4.71796875,10.5946667 4.71796875,9.82133333 Z"></path>
                                </g>
                                <path d="M12.9164062,11.136 L11.3695312,11.136 L11.3695312,0.696 L12.9164062,0.696 C15.2367187,0.696 17.1703125,2.62933333 17.1703125,4.94933333 L17.1703125,6.96 C17.1703125,9.20266667 15.3140625,11.136 12.9164062,11.136 Z" id="Shape" fill="#CE8E69" fill-rule="nonzero"></path>
                            </g>
                            <path d="M48.8039062,54.8293333 L41.765625,54.8293333 C41.3789062,54.8293333 41.0695312,54.52 41.0695312,54.1333333 L41.0695312,54.1333333 C41.0695312,53.7466667 41.3789062,53.4373333 41.765625,53.4373333 L48.8039062,53.4373333 C49.190625,53.4373333 49.5,53.7466667 49.5,54.1333333 L49.5,54.1333333 C49.4226562,54.5973333 49.190625,54.8293333 48.8039062,54.8293333 Z" id="Shape" fill="#ECBA88" fill-rule="nonzero"></path>
                            <path d="M20.6507812,102.930667 L30.7828125,106.256 L39.2132812,77.256 C40.4507812,74.6266667 39.3679687,71.456 36.7382812,70.1413333 L36.7382812,70.1413333 C34.1085937,68.904 30.9375,69.9866667 29.6226562,72.616 L20.6507812,102.930667 Z" id="Shape" fill="#63A9C2" fill-rule="nonzero"></path>
                        </g>
                    </g>
                </g>
            </g>
        </g>
    </g>
</svg>