<svg xmlns="http://www.w3.org/2000/svg" xmlns:xlink="http://www.w3.org/1999/xlink" width="219" height="98" viewBox="0 0 219 98">
    <defs>
        <path id="a" d="M8 0h214a8 8 0 0 1 8 8v128a8 8 0 0 1-8 8H8a8 8 0 0 1-8-8V8a8 8 0 0 1 8-8z"/>
    </defs>
    <g fill="none" fill-rule="evenodd" transform="translate(-11 -46)">
        <mask id="b" fill="#fff">
            <use xlink:href="#a"/>
        </mask>
        <g mask="url(#b)">
            <g fill-rule="nonzero" transform="translate(11 46)">
                <g fill="#000" opacity=".08" transform="translate(0 74.27)">
                    <path d="M181.245 24.278H2.239c-.96 0-1.84-.799-1.84-1.837 0-.958.8-1.837 1.84-1.837h179.006c.96 0 1.839.799 1.839 1.837-.08 1.038-.88 1.837-1.84 1.837z"/>
                    <path d="M76.352 20.684v-5.91h14.07a5.9 5.9 0 0 1 5.917 5.91H76.352z"/>
                    <path d="M70.995 20.684v-5.91h14.071a5.9 5.9 0 0 1 5.916 5.91H70.995zM53.646 11.98h-3.358V3.992c0-1.837 1.52-3.354 3.358-3.354v11.34z"/>
                    <path d="M53.646 15.014h-3.358V7.028c0-1.837 1.52-3.354 3.358-3.354v11.34z"/>
                    <path d="M56.284 15.892h-3.358V7.906c0-1.837 1.52-3.354 3.358-3.354v11.34z"/>
                    <path d="M56.284 18.927h-3.358v-7.986c0-1.837 1.52-3.354 3.358-3.354v11.34z"/>
                    <path d="M58.043 20.604H48.37a3.666 3.666 0 0 1-3.677-3.673 3.666 3.666 0 0 1 3.677-3.674h9.674a3.666 3.666 0 0 1 3.678 3.674 3.666 3.666 0 0 1-3.678 3.673z"/>
                    <ellipse cx="30.701" cy="14.535" rx="5.916" ry="5.91"/>
                    <ellipse cx="21.746" cy="16.052" rx="4.397" ry="4.392"/>
                    <path d="M104.654 20.764h-4.158c-.88 0-1.599-.719-1.599-1.597V4.472c0-.878.72-1.597 1.6-1.597h4.157c.879 0 1.599.719 1.599 1.597v14.695c0 .878-.72 1.597-1.6 1.597z"/>
                </g>
                <g fill="#000" opacity=".05" transform="translate(189.48 42.326)">
                    <path d="M23.585 2.955L18.628 11.5c-.88 1.517.24 3.354 1.919 3.354h9.914c1.759 0 2.798-1.837 1.918-3.354l-4.956-8.545c-.8-1.518-2.959-1.518-3.838 0z"/>
                    <path d="M32.14.878s-2-1.118-3.918-.559c-1.919.56-2.958 2.636-2.958 2.636s1.999 1.118 3.917.559C31.101 2.875 32.14.878 32.14.878z"/>
                    <path d="M25.264 2.955c.08-.16 1.12-2.077 2.958-2.636 1.839-.559 3.758.4 3.918.56l-6.876 2.076zM1.679 30.667H124.16c.72 0 1.36-.56 1.36-1.358 0-.719-.56-1.358-1.36-1.358H1.68c-.72 0-1.36.56-1.36 1.358 0 .719.64 1.358 1.36 1.358z"/>
                    <ellipse cx="34.618" cy="12.059" rx="5.197" ry="5.191"/>
                    <path d="M15.27 18.688h32.38c0 5.11-4.158 9.263-9.274 9.263H24.624c-5.196.08-9.354-4.073-9.354-9.264z"/>
                    <path d="M15.27 13.337h32.38v5.43H15.27z"/>
                    <path d="M14.95 14.056h33.02c.64 0 1.199-.56 1.199-1.198 0-.64-.56-1.198-1.2-1.198H14.952c-.64 0-1.2.559-1.2 1.198-.08.639.48 1.198 1.2 1.198z"/>
                </g>
                <path fill="#5C606E" d="M142.15 47.198L125.92 63.41a5.844 5.844 0 0 1-8.315 0l-.08-.08a5.828 5.828 0 0 1 0-8.306l16.23-16.212a5.844 5.844 0 0 1 8.315 0l.08.08c2.238 2.236 2.238 5.99 0 8.306zM174.53 47.597l15.91 15.893a6.085 6.085 0 0 0 8.634 0 6.069 6.069 0 0 0 0-8.625l-15.91-15.893a6.085 6.085 0 0 0-8.635 0 6.069 6.069 0 0 0 0 8.625z"/>
                <ellipse cx="158.699" cy="56.781" fill="#5C606E" rx="23.425" ry="23.399"/>
                <path fill="#5C606E" d="M130.957 45.68c0-5.35 4.397-9.742 9.754-9.742h35.497c5.357 0 9.754 4.392 9.754 9.743h-55.005z"/>
                <ellipse cx="121.763" cy="59.177" fill="#B0AA8E" rx="7.195" ry="7.188"/>
                <ellipse cx="194.756" cy="59.017" fill="#B0AA8E" rx="7.195" ry="7.188"/>
                <ellipse cx="158.699" cy="60.535" fill="#ACC5C6" rx="23.585" ry="23.559"/>
                <path fill="#6D6F7E" d="M139.352 73.392h38.375V98.47h-38.375zM144.228 35.938h3.358v37.374h-3.358zM169.253 35.938h3.357v37.374h-3.357z"/>
                <ellipse cx="158.539" cy="37.854" fill="#5C606E" rx="9.194" ry="4.073"/>
                <ellipse cx="158.539" cy="36.816" fill="#CA9176" rx="5.916" ry="2.476"/>
                <path fill="#CA9176" d="M152.623 27.313h11.753v9.583h-11.753z"/>
                <path fill="#DDB888" d="M158.54 33.382c-6.636 0-11.993-5.35-11.993-11.98v-7.666c0-6.628 5.357-11.98 11.992-11.98 6.636 0 11.993 5.352 11.993 11.98v7.667c0 6.628-5.357 11.979-11.993 11.979z"/>
                <path fill="#D48064" d="M155.741 26.274c-.32 0-.56.4-.4.72.48 1.437 1.76 2.395 3.198 2.395 1.44 0 2.639-.958 3.198-2.396.16-.32-.08-.719-.4-.719h-5.596z"/>
                <path fill="#BF5E3D" d="M161.258 30.108c.32 0 .56-.4.4-.72-.48-1.357-1.68-2.395-3.119-2.395-1.439 0-2.638.958-3.118 2.396-.08.32.08.719.4.719h5.437z"/>
                <path fill="#514042" d="M158.22 13.896c2.558 0 4.637-1.757 4.637-3.993 0-.16-.16-.32-.32-.32h-8.635c-.16 0-.32.16-.32.32 0 2.236 2.08 3.993 4.638 3.993z"/>
                <ellipse cx="153.263" cy="18.208" fill="#514042" rx="1.279" ry="1.278"/>
                <ellipse cx="146.227" cy="14.934" fill="#514042" rx="2.878" ry="2.875"/>
                <ellipse cx="153.263" cy="16.931" fill="#DDB888" rx="1.759" ry="1.757"/>
                <ellipse cx="163.736" cy="18.208" fill="#514042" rx="1.279" ry="1.278"/>
                <ellipse cx="163.736" cy="16.931" fill="#DDB888" rx="1.759" ry="1.757"/>
                <ellipse cx="170.931" cy="14.934" fill="#514042" rx="2.878" ry="2.875"/>
                <path fill="#DDB888" d="M109.13 59.177a5.354 5.354 0 0 0-5.356-5.35h-2.638v10.62h2.638c2.958.08 5.357-2.315 5.357-5.27z"/>
                <path fill="#83A1BE" d="M177.647 76.267h-38.295c-.88 0-1.68-.718-1.68-1.677 0-.878.72-1.677 1.68-1.677h38.295c.88 0 1.68.719 1.68 1.677 0 .959-.72 1.677-1.68 1.677z"/>
                <path fill="#CA9176" d="M107.931 58.378c.72-.718.72-1.836 0-2.475l-5.836-5.83c-.72-.719-1.839-.719-2.478 0-.72.719-.72 1.837 0 2.476l5.836 5.83c.64.638 1.759.638 2.478 0z"/>
                <path fill="#CA9176" d="M126.16 59.177a5.354 5.354 0 0 0-5.357-5.35h-19.188c-.32 0-.48.239-.48.479v9.583c0 .32.24.48.48.48h19.188c2.958.159 5.357-2.237 5.357-5.192z"/>
                <path fill="#514042" d="M98.817 86.33h2.479c.24 0 .48-.24.48-.48V32.105c0-.958-.8-1.757-1.76-1.757-.959 0-1.758.799-1.758 1.757v53.747c.08.24.24.479.56.479z"/>
                <path fill="#6D6F7E" d="M170.692 9.663c-1.36-5.35-6.236-9.344-12.073-9.344-5.836 0-10.713 3.994-12.072 9.344h24.145z"/>
                <path fill="#83A1BE" d="M170.292 11.02h-23.505c-.48 0-.96-.398-.96-.957 0-.48.4-.959.96-.959h23.505c.48 0 .96.4.96.959 0 .559-.4.958-.96.958z"/>
                <path fill="#CA9176" d="M194.916 63.09c-2.798 0-5.117-2.316-5.117-5.11V37.454c0-.24.16-.4.4-.4h9.434c.24 0 .4.16.4.4v20.524c0 2.795-2.319 5.111-5.117 5.111z"/>
                <path fill="#D09C76" d="M190.28 35.618c-.88 0-1.6-.719-1.6-1.597v-8.146c0-.878.72-1.597 1.6-1.597.879 0 1.598.719 1.598 1.597v8.146c.08.878-.64 1.597-1.599 1.597z"/>
                <path fill="#D09C76" d="M188.68 34.1a4.843 4.843 0 0 1 4.877-4.87h6.476v9.822h-6.476c-2.638-.08-4.877-2.236-4.877-4.951z"/>
                <path fill="#C28E76" d="M188.76 35.059s0 .08 0 0a5.117 5.117 0 0 0 4.957 3.913h6.316v-3.434h-6.476c-1.28 0-2.478-.479-3.358-1.278-.56-.559-1.599 0-1.439.799z"/>
                <path fill="#7FAE5F" d="M185.642 23.4s1.2 4.152 4.477 5.909c3.278 1.757 7.356.4 7.356.4s-1.2-4.153-4.478-5.91c-3.277-1.677-7.355-.4-7.355-.4z"/>
                <path fill="#5C995A" d="M197.475 29.708c-.4.08-4.238 1.198-7.356-.479-3.118-1.677-4.397-5.51-4.477-5.83l11.833 6.31z"/>
                <path fill="#7FAE5F" d="M193.557 16.93s-2.079 3.754-.96 7.348c1.12 3.514 4.958 5.51 4.958 5.51s2.078-3.753.959-7.347c-1.12-3.514-4.957-5.51-4.957-5.51z"/>
                <path fill="#5C995A" d="M197.395 29.788c-.32-.16-3.838-2.156-4.877-5.51-1.04-3.354.8-6.948.96-7.268l3.917 12.778z"/>
                <path fill="#514042" d="M169.572 16.611v7.986c0 .48-.16.959-.56 1.358l-.4.4c-1.278 1.277-3.357.398-3.357-1.438 0-1.438-1.2-2.636-2.638-2.636h-.88c-.48 0-.96.24-1.279.719-.4.48-.96.799-1.599.799h-.72c-.639 0-1.279-.32-1.598-.799-.32-.4-.8-.719-1.28-.719h-.72c-1.438 0-2.637 1.198-2.637 2.636 0 1.757-2.16 2.635-3.358 1.437l-.4-.4c-.32-.319-.56-.798-.56-1.357v-7.986h-2.638v9.024c0 .48.16.959.56 1.358l5.836 5.83c.56.559 1.359.719 2.159.4.64-.32 1.039-1.039 1.039-1.758v-3.913c0-1.437 1.2-2.635 2.638-2.635h2.878c1.44 0 2.639 1.198 2.639 2.635v3.913c0 .719.4 1.438 1.039 1.757.72.32 1.599.16 2.159-.4l5.836-5.829c.32-.32.56-.799.56-1.358v-9.024h-2.719z"/>
                <path fill="#DDB888" d="M103.854 57.9c0-.72-.64-1.358-1.36-1.358h-5.596c-.72 0-1.359.639-1.359 1.357 0 .72.64 1.358 1.36 1.358h5.596c.8 0 1.36-.639 1.36-1.358z"/>
                <path fill="#DDB888" d="M103.135 55.424c0-.72-.64-1.358-1.36-1.358h-3.997c-.72 0-1.36.639-1.36 1.358 0 .718.64 1.357 1.36 1.357h3.997c.8-.08 1.36-.639 1.36-1.357zM104.494 60.535c0-.719-.64-1.358-1.36-1.358h-6.156c-.72 0-1.359.639-1.359 1.358 0 .718.64 1.357 1.36 1.357h6.156c.72 0 1.359-.639 1.359-1.357z"/>
                <path fill="#DDB888" d="M102.735 63.17c0-.719-.64-1.358-1.36-1.358h-3.517c-.72 0-1.36.64-1.36 1.358 0 .719.64 1.358 1.36 1.358h3.518c.72 0 1.359-.64 1.359-1.358zM196.036 28.91c0-.799.64-1.438 1.439-1.438h4.077c.8 0 1.44.64 1.44 1.438 0 .798-.64 1.437-1.44 1.437h-4.077c-.8 0-1.44-.639-1.44-1.437z"/>
                <path fill="#DDB888" d="M194.756 31.705c0-.799.64-1.438 1.44-1.438h6.635c.8 0 1.44.64 1.44 1.438 0 .798-.64 1.437-1.44 1.437h-6.636c-.8 0-1.439-.639-1.439-1.437z"/>
                <path fill="#DDB888" d="M194.756 34.5c0-.799.64-1.438 1.44-1.438h6.635c.8 0 1.44.64 1.44 1.438 0 .799-.64 1.438-1.44 1.438h-6.636c-.8 0-1.439-.64-1.439-1.438z"/>
                <path fill="#DDB888" d="M196.036 37.215c0-.798.64-1.437 1.439-1.437h4.077c.8 0 1.44.639 1.44 1.437 0 .799-.64 1.438-1.44 1.438h-4.077c-.8.08-1.44-.64-1.44-1.438z"/>
                <path fill="#FFF" d="M107.772 43.125c0-1.038-.8-1.837-1.84-1.837H78.51c-.88 0-1.599-.719-1.599-1.597 0-.879.72-1.597 1.6-1.597h3.677c1.04 0 1.839-.799 1.839-1.837 0-1.038-.8-1.837-1.84-1.837H69.557c-1.44 0-2.638 1.198-2.638 2.636v.24a.63.63 0 0 1-.64.638h-9.034c-1.04 0-1.84.799-1.84 1.837 0 1.038.8 1.837 1.84 1.837h9.114c.32 0 .64.24.64.639v.798c0 1.038.879 1.917 1.918 1.917h4.477c.96 0 1.76.798 1.76 1.757 0 .718.559 1.278 1.278 1.278h2.08c.639 0 1.198.559 1.198 1.197 0 .64-.56 1.198-1.199 1.198h-4.477c-1.04 0-1.839.799-1.839 1.837 0 1.038.8 1.837 1.839 1.837h.56c.32 0 .64.24.64.639v1.118c0 .799.639 1.437 1.438 1.437h.48c.8 0 1.52.64 1.52 1.518v.878c0 .32.239.64.639.64.32 0 .64.239.64.638v.719c0 1.118.879 1.996 1.998 1.996 1.12 0 1.999-.878 1.999-1.996v-.719c0-.32.24-.639.64-.639.32 0 .639-.24.639-.639v-.878c0-.799.64-1.518 1.519-1.518h.4c.8 0 1.519-.638 1.519-1.517v-1.038c0-.32.24-.639.64-.639h4.556c.96 0 1.76-.799 1.76-1.757v-.08c0-.958-.8-1.757-1.76-1.757a.63.63 0 0 1-.64-.639v-.798c0-.799-.639-1.438-1.438-1.438h-2.239c-.72 0-1.279-.559-1.279-1.278 0-.718.56-1.277 1.28-1.277h16.389c1.04-.08 1.839-.959 1.839-1.917z" opacity=".2"/>
                <g transform="translate(186.282 83.854)">
                    <ellipse cx="5.596" cy="5.351" fill="#DAB950" rx="5.277" ry="5.271"/>
                    <ellipse cx="4.535" cy="4.378" fill="#9F7F78" rx="1" ry="1.119" transform="rotate(45 4.535 4.378)"/>
                    <ellipse cx="6.378" cy="6.213" fill="#7F5E40" rx="1" ry="1.119" transform="rotate(45 6.378 6.213)"/>
                </g>
                <path fill="#AC664F" d="M166.534 94.156v-5.59h13.352c3.038 0 5.596 2.476 5.596 5.59h-18.948z"/>
                <path fill="#98543D" d="M161.497 94.156v-5.59h13.352c3.038 0 5.596 2.476 5.596 5.59h-18.948z"/>
                <ellipse cx="168.933" cy="91.84" fill="#DDD4BC" rx="1.119" ry="1.118"/>
                <g transform="translate(191.079 78.264)">
                    <path fill="#B55E5D" d="M10.154 3.274l5.276 9.104c.96 1.598-.24 3.594-2.078 3.594H2.798C.96 15.972-.24 13.976.72 12.378l5.276-9.104c.88-1.597 3.198-1.597 4.158 0z"/>
                    <path fill="#5C995A" d="M.96 1.038S3.117-.16 5.196.48c2.078.64 3.198 2.795 3.198 2.795s-2.159 1.198-4.238.56C2.08 3.193.96 1.037.96 1.037z"/>
                    <path fill="#5C995A" d="M8.315 3.274c-.08-.16-1.2-2.236-3.198-2.795C3.118-.08 1.119.96.959 1.04l7.356 2.235z"/>
                    <ellipse cx="6.716" cy="10.781" fill="#DD8F75" rx="1" ry="1.278"/>
                    <ellipse cx="9.194" cy="10.781" fill="#DD8F75" rx="1" ry="1.278"/>
                </g>
                <ellipse cx="173.09" cy="91.84" fill="#DDD4BC" rx="1.119" ry="1.118"/>
                <path fill="#614744" d="M244.725 98.469h-109.53c-1.2 0-2.08-.959-2.08-2.077 0-1.198.96-2.076 2.08-2.076h109.53c1.199 0 2.078.958 2.078 2.076.08 1.198-.88 2.077-2.078 2.077z"/>
                <path fill="#58413E" d="M148.146 79.701h-77.95a2.319 2.319 0 0 1-2.32-2.316 2.319 2.319 0 0 1 2.32-2.316h77.95a2.319 2.319 0 0 1 2.318 2.316 2.319 2.319 0 0 1-2.318 2.316z"/>
                <path fill="#614744" d="M109.21 112.684c-18.548 0-33.658-15.014-33.658-33.621v-6.869h67.237v6.868c0 18.608-15.03 33.622-33.578 33.622z"/>
                <path fill="#58413E" d="M109.21 73.872v40.49c18.549 0 33.58-15.015 33.58-33.622v-6.868h-33.58z"/>
                <path fill="#7E5C4C" d="M144.948 73.792H73.393c-.879 0-1.679-.72-1.679-1.677 0-.879.72-1.677 1.68-1.677h71.554c.88 0 1.679.718 1.679 1.677 0 .878-.72 1.677-1.679 1.677z"/>
                <path fill="#BD5840" d="M146.467 87.608s-3.918 3.274-1.519 9.503c1.519 3.913-.48 8.865-6.076 7.427-6.076-1.517-4.637-7.666-3.278-10.462.8-1.836 4.797-7.187 10.873-6.468zM92.181 82.417s-4.557 3.833-1.838 11.02c1.759 4.553-.56 10.303-7.116 8.705-7.115-1.757-5.356-8.944-3.837-12.139 1.119-2.156 5.756-8.385 12.791-7.586z"/>
                <path fill="#BD5840" d="M103.294 86.17s-5.036 5.59-.08 14.215c3.039 5.431 1.28 13.098-7.275 12.14-9.274-1.039-8.554-10.383-7.195-14.695.8-2.795 5.436-11.42 14.55-11.66zM127.839 85.052s2.079 5.83-4.717 11.26c-4.237 3.435-5.437 9.983 1.679 11.66 7.755 1.837 10.233-5.83 10.633-9.583.32-2.396-.4-10.542-7.595-13.337z"/>
                <path fill="#BD5840" d="M118.165 84.174s2.079 5.83-4.717 11.26c-4.237 3.434-5.437 9.983 1.679 11.66 7.755 1.837 10.233-5.83 10.633-9.584.32-2.395-.48-10.621-7.595-13.336z"/>
                <path fill="#BD5840" d="M104.574 91.122s2.718 5.11-2.879 11.1c-3.517 3.754-3.757 9.983 3.039 10.622 7.355.639 8.794-6.788 8.634-10.302-.08-2.316-1.839-9.823-8.794-11.42zM69.556 90.243s4.237 2.955 2.398 9.424c-1.119 4.073 1.28 8.864 6.796 7.027 5.996-1.996 3.997-8.066 2.398-10.78-1.039-1.758-5.516-6.869-11.592-5.67z"/>
                <path fill="#DD7338" d="M142.31 91.52s-1.6 2.477.72 5.511c1.438 1.917 1.198 4.952-2.16 5.111-3.597.16-3.837-3.514-3.517-5.19.16-1.199 1.519-4.792 4.957-5.431zM120.883 90.323s.88 3.594-3.198 6.15c-2.558 1.596-3.597 5.35.32 7.027 4.237 1.757 6.076-2.476 6.476-4.632.16-1.437.24-6.309-3.598-8.545zM84.107 89.365s.879 3.593-3.198 6.149c-2.559 1.597-3.598 5.35.32 7.028 4.237 1.757 6.076-2.476 6.475-4.632.24-1.438.24-6.31-3.597-8.545z"/>
                <path fill="#514042" d="M151.424 16.372c.48-.48 1.12-.72 1.839-.72.64 0 1.279.24 1.839.72.24.24.64.24.879 0a.626.626 0 0 0 0-.879c-.72-.719-1.679-1.118-2.638-1.118-.96 0-1.92.4-2.639 1.118a.626.626 0 0 0 0 .879c.08.16.48.16.72 0zM161.897 16.372c.48-.48 1.12-.72 1.839-.72.64 0 1.28.24 1.839.72.24.24.64.24.88 0a.626.626 0 0 0 0-.879c-.72-.719-1.68-1.118-2.639-1.118-.96 0-1.919.4-2.638 1.118a.626.626 0 0 0 0 .879c.16.16.48.16.72 0z"/>
            </g>
        </g>
    </g>
</svg>
